<?xml version="1.0" standalone="no"?>
<!DOCTYPE svg PUBLIC "-//W3C//DTD SVG 20010904//EN"
 "http://www.w3.org/TR/2001/REC-SVG-20010904/DTD/svg10.dtd">
<svg version="1.0" xmlns="http://www.w3.org/2000/svg"
 width="640.000000pt" height="640.000000pt" viewBox="0 0 640.000000 640.000000"
 preserveAspectRatio="xMidYMid meet">
<metadata>
Created by potrace 1.11, written by Peter Selinger 2001-2013
</metadata>
<g transform="translate(0.000000,640.000000) scale(0.100000,-0.100000)"
fill="#000000" stroke="none">
<path d="M0 6295 l0 -105 40 0 c38 0 40 -2 40 -30 l0 -30 120 0 c100 0 120 3
120 15 0 11 11 15 40 15 l40 0 0 -40 0 -40 40 0 c29 0 40 4 40 15 0 11 11 15
40 15 22 0 40 5 40 10 0 6 33 10 80 10 64 0 80 3 80 15 0 13 20 15 120 15
l120 0 0 -55 0 -55 40 0 c29 0 40 4 40 15 0 12 16 15 80 15 l80 0 0 -40 0 -40
-40 0 c-29 0 -40 -4 -40 -15 0 -12 16 -15 80 -15 68 0 80 3 80 16 0 15 16 17
163 13 89 -3 143 -3 120 -1 l-43 3 0 55 0 54 40 0 c29 0 40 -4 40 -15 0 -12
16 -15 80 -15 l80 0 0 -41 c0 -52 24 -48 28 4 2 28 -1 37 -12 37 -9 0 -16 7
-16 15 0 12 16 15 85 15 l85 0 -6 25 c-6 23 -3 25 24 25 41 0 34 -24 -24 -81
-24 -24 -44 -52 -44 -61 0 -9 -5 -20 -11 -24 -9 -5 -10 1 -5 22 l8 29 -26 -28
c-31 -34 -31 -36 -6 -45 19 -7 19 -9 -6 -62 -38 -82 -61 -92 -66 -27 -3 23 -4
6 -5 -37 0 -76 0 -78 13 -46 20 46 24 35 13 -34 -12 -73 -14 -77 -42 -66 -42
17 -142 45 -151 42 -5 -2 -26 4 -48 13 -21 8 -55 14 -76 13 l-37 -1 45 -7 45
-7 -57 -1 c-78 -3 -214 -39 -263 -72 -40 -26 -107 -60 -120 -60 -3 0 -3 9 0
20 5 14 2 20 -9 20 -9 0 -16 -8 -16 -19 0 -11 -5 -23 -11 -27 -8 -4 -7 -9 2
-14 9 -6 4 -15 -17 -34 -16 -14 -35 -26 -41 -26 -7 0 -13 -6 -13 -14 0 -7 -7
-19 -15 -26 -12 -10 -18 -10 -30 0 -9 7 -19 10 -22 6 -4 -4 -1 -11 6 -16 8 -4
11 -15 8 -24 -7 -19 -23 -21 -33 -4 -4 7 -14 -7 -25 -33 -28 -68 -26 -73 25
-66 35 5 48 2 66 -13 l23 -20 -21 0 c-12 0 -22 5 -22 11 0 19 -55 5 -58 -14
-3 -16 -1 -17 17 -8 35 19 34 -7 -1 -29 -23 -15 -44 -20 -68 -16 -31 4 -32 3
-12 -6 12 -6 22 -15 22 -19 0 -12 -18 -21 -23 -12 -3 5 -26 7 -51 5 -37 -3
-46 -8 -46 -23 0 -13 -7 -19 -24 -19 -13 0 -32 -3 -41 -6 -14 -6 -13 -8 5 -21
19 -14 24 -13 43 5 15 14 27 18 36 13 11 -7 5 -17 -24 -43 -21 -18 -47 -42
-58 -53 l-19 -20 6 20 c5 19 0 20 -79 23 l-85 4 0 -41 0 -41 -40 0 -40 0 0
-40 0 -40 43 0 c42 0 42 0 42 37 0 34 3 38 28 41 15 2 27 -1 27 -7 0 -5 10
-11 22 -13 21 -3 21 -4 -6 -33 -15 -16 -37 -47 -47 -67 -18 -36 -18 -38 -2
-38 11 0 14 -3 7 -8 -37 -24 -159 -276 -203 -420 -24 -78 -32 -163 -16 -168 6
-2 24 19 40 47 56 96 67 114 74 119 3 3 15 22 26 43 11 20 23 37 27 37 5 0 8
6 8 14 0 7 18 30 40 50 22 20 40 44 40 53 0 15 2 15 9 4 7 -11 10 -10 13 7 5
33 144 182 221 238 38 27 74 54 81 61 8 7 27 15 42 18 20 5 25 4 16 -3 -11 -7
-8 -11 12 -14 28 -6 31 -1 17 22 -7 10 -1 20 25 38 20 13 38 21 41 18 3 -3 18
3 33 14 49 35 45 21 -11 -34 -49 -50 -76 -80 -141 -160 -13 -15 -31 -37 -40
-47 -10 -10 -18 -22 -18 -26 0 -5 -15 -24 -33 -44 -18 -20 -44 -52 -57 -72
-14 -20 -28 -37 -32 -37 -5 0 -8 -5 -8 -10 0 -6 -5 -16 -10 -23 -34 -40 -60
-91 -52 -99 10 -10 16 -4 37 36 17 32 52 39 75 14 33 -36 18 -95 -26 -99 -8
-1 -19 -2 -26 -3 -6 0 -16 -14 -21 -31 -15 -45 -24 -53 -72 -57 -39 -3 -45 0
-50 19 -3 13 -10 23 -15 23 -12 0 -129 -122 -237 -248 -26 -30 -60 -68 -75
-84 -16 -16 -28 -32 -28 -34 0 -3 -13 -19 -30 -37 -16 -18 -30 -38 -30 -44 0
-7 -4 -13 -9 -13 -18 0 -131 -181 -131 -211 0 -10 -4 -21 -10 -24 -6 -4 -10
-60 -10 -138 l1 -132 29 55 c16 30 40 68 54 84 14 16 26 32 26 35 0 4 42 50
92 102 84 87 103 101 191 144 55 25 101 44 104 41 3 -2 -13 -28 -35 -58 -46
-60 -115 -193 -131 -253 -6 -22 -14 -83 -17 -135 -3 -52 -14 -122 -24 -155
-32 -107 -39 -149 -46 -286 -5 -105 -3 -147 9 -194 8 -33 18 -85 22 -115 15
-112 63 -207 145 -285 48 -45 48 -46 14 75 -22 78 -25 334 -5 440 23 127 54
240 66 240 11 0 45 -61 45 -82 0 -6 6 -19 14 -27 8 -9 27 -54 44 -101 16 -47
46 -130 65 -185 58 -163 117 -367 117 -406 0 -40 16 -66 45 -71 30 -5 28 -69
-2 -83 -27 -12 -33 -65 -8 -65 23 0 20 -56 -3 -62 -16 -5 -20 -20 -25 -98 -4
-51 -7 -117 -7 -146 0 -70 -64 -359 -99 -447 -6 -16 -11 -31 -11 -34 0 -16 55
48 87 100 20 31 38 55 40 53 9 -9 -21 -123 -49 -185 -50 -113 -8 -84 69 48
l38 65 6 -104 c3 -58 11 -127 17 -155 16 -74 46 -158 57 -162 6 -2 10 71 11
205 0 171 4 223 21 302 27 125 53 210 62 210 5 0 11 -102 15 -227 6 -192 5
-241 -9 -306 -18 -87 -109 -346 -128 -363 -7 -6 -75 -23 -152 -38 -228 -45
-397 -105 -410 -146 -4 -12 0 -65 9 -118 20 -123 36 -325 36 -448 0 -90 1 -94
21 -94 22 0 22 1 15 142 -4 79 -16 213 -26 298 -29 223 -29 215 27 241 93 42
273 86 453 110 183 24 477 7 754 -42 244 -44 721 -181 721 -208 0 -6 -45 -36
-100 -65 -55 -29 -172 -93 -260 -142 -88 -49 -194 -105 -235 -123 -41 -19
-107 -56 -147 -83 -40 -26 -75 -48 -78 -48 -3 0 -28 -17 -56 -37 l-50 -38 56
-3 c48 -3 62 1 91 23 19 14 34 31 34 38 0 11 59 56 85 66 6 2 46 25 90 51 175
104 348 200 353 195 5 -5 -7 -16 -90 -82 -101 -82 -50 -57 85 40 210 151 285
199 439 281 348 184 666 260 878 210 65 -15 94 -33 183 -111 56 -50 83 -64
147 -72 l45 -6 -50 -29 c-27 -16 -69 -41 -92 -55 -23 -14 -67 -41 -97 -60 -61
-36 -87 -61 -66 -61 15 0 212 98 272 136 24 15 70 49 102 76 33 27 86 63 118
79 l58 29 85 -42 c47 -23 85 -46 85 -51 0 -10 -91 -51 -195 -88 -52 -18 -71
-28 -54 -28 42 -1 144 34 285 97 138 63 231 119 359 216 93 70 253 156 293
156 15 0 50 -11 77 -25 56 -27 47 -33 -15 -9 -37 15 -42 15 -65 0 -37 -25 -52
-61 -100 -253 -25 -97 -47 -178 -50 -181 -7 -7 -234 -4 -286 3 -40 6 -50 4
-69 -15 -18 -18 -21 -30 -17 -66 5 -44 4 -46 -68 -120 -100 -103 -135 -181
-101 -226 17 -23 78 -44 150 -53 46 -6 60 -12 77 -36 18 -26 26 -29 79 -29
l59 0 32 58 c60 107 91 152 101 146 7 -4 9 -44 6 -105 l-5 -99 214 0 213 0 -6
188 c-7 188 -7 189 16 212 20 20 29 22 84 17 104 -10 220 -37 242 -58 11 -10
31 -19 44 -19 14 0 33 -11 46 -27 l22 -28 58 14 c33 7 73 15 89 18 17 3 40 14
52 26 21 19 24 19 47 3 84 -54 160 -158 207 -283 l24 -63 157 0 c111 0 158 3
158 11 0 18 -153 309 -197 375 -63 95 -65 89 40 123 51 16 107 32 125 36 l32
7 0 185 c0 172 -1 185 -17 178 -191 -74 -397 -126 -513 -129 -41 -2 -82 -6
-91 -10 -9 -4 -24 1 -39 14 -30 26 -53 25 -126 -4 -32 -13 -77 -24 -98 -24
-21 -1 -47 -9 -57 -18 -17 -15 -22 -14 -74 11 -48 24 -64 27 -116 22 l-61 -5
7 26 c14 61 59 165 95 221 73 112 117 142 270 181 277 70 812 255 818 282 4
18 -55 81 -96 102 -17 9 -42 16 -56 16 -21 0 -27 7 -36 43 -34 129 -55 157
-131 168 -30 4 -84 8 -120 8 -62 1 -69 3 -96 33 -16 18 -46 48 -67 67 -39 33
-40 33 -112 26 l-72 -7 -36 73 c-20 40 -36 78 -36 84 0 6 20 30 44 53 l44 42
38 -52 c42 -60 114 -138 126 -138 15 0 8 19 -25 72 -35 56 -62 117 -71 159 -4
18 3 40 26 75 40 62 118 219 118 237 0 7 4 17 9 23 12 12 71 223 71 252 0 33
18 103 60 237 21 66 42 140 45 165 4 25 9 54 12 65 2 11 7 86 10 166 8 199
-17 345 -94 557 -9 23 -13 45 -10 48 9 9 53 -66 135 -226 58 -112 81 -170 102
-255 66 -266 64 -583 -6 -805 -31 -99 -113 -279 -149 -326 -14 -18 -25 -40
-25 -48 0 -86 183 196 244 374 32 95 66 250 77 350 18 162 -1 407 -34 448 -5
7 -17 12 -26 10 -26 -4 -41 11 -41 43 0 22 5 29 20 29 20 0 26 11 13 23 -3 4
-12 2 -19 -4 -17 -14 -51 -3 -63 20 -13 24 9 65 37 69 27 4 27 13 1 82 -73
194 -246 440 -463 662 -52 54 -103 113 -112 130 -9 18 -20 35 -23 38 -3 3 -24
32 -46 65 -34 51 -163 188 -221 235 -158 128 -224 169 -364 227 -47 19 -94 39
-105 43 l-20 9 20 0 c36 2 169 -29 245 -57 73 -26 179 -77 250 -121 19 -12 43
-24 53 -27 9 -4 17 -13 17 -20 0 -8 6 -14 13 -14 21 0 180 -121 243 -185 94
-96 188 -227 249 -346 18 -36 41 -72 51 -80 16 -13 17 -11 11 27 -8 48 -60
216 -81 259 -8 17 -29 59 -45 95 -35 74 -111 200 -138 228 -10 11 -34 40 -53
66 -47 62 -179 197 -240 245 -37 29 -45 41 -34 45 22 8 22 8 26 -10 2 -13 8
-11 30 11 17 17 34 25 43 21 9 -3 14 -9 12 -13 -3 -5 39 -9 93 -10 l99 -1 42
-39 c23 -21 77 -73 120 -117 52 -52 83 -76 94 -73 13 5 11 13 -9 51 -38 72
-65 107 -142 184 -78 77 -78 73 3 76 18 1 42 11 59 26 14 14 28 20 30 15 5
-13 84 -7 84 6 0 5 18 9 39 9 30 0 40 -4 43 -17 3 -15 7 -14 29 10 15 15 31
27 38 27 6 0 11 5 11 10 0 6 16 10 35 10 19 0 35 -4 35 -10 0 -5 -16 -10 -35
-10 -24 0 -35 -5 -35 -15 0 -12 20 -15 120 -15 l120 0 0 445 0 445 -40 0 c-22
0 -40 5 -40 10 0 6 -113 10 -320 10 -313 0 -320 0 -320 -20 0 -18 -7 -20 -80
-20 -73 0 -80 2 -80 20 0 19 -7 20 -220 20 l-220 0 0 -40 c0 -33 -3 -40 -20
-40 -29 0 -33 -1 -52 -11 -12 -6 -18 -6 -18 1 0 5 5 10 11 10 7 0 9 10 5 25
-5 18 -2 27 9 31 41 16 2 24 -119 23 -94 0 -136 -4 -140 -12 -5 -9 -7 -9 -12
1 -4 9 -40 12 -130 12 l-124 0 0 -40 c0 -39 1 -40 35 -40 l35 0 0 -55 c0 -44
3 -55 16 -55 10 0 14 6 10 15 -6 16 2 19 22 7 9 -6 4 -16 -18 -37 -16 -16 -30
-23 -30 -17 0 19 -49 26 -68 9 -9 -8 -30 -19 -46 -24 l-29 -9 31 -13 c18 -8
32 -20 32 -27 0 -18 -17 -18 -27 -1 -4 8 -18 16 -30 19 -17 5 -23 0 -28 -19
-3 -13 -3 -28 0 -33 9 -14 25 -12 22 2 -1 6 6 14 16 16 9 2 17 -1 17 -5 0 -15
-55 -52 -86 -58 -24 -5 -26 -4 -11 5 9 6 17 16 17 21 0 6 -4 7 -10 4 -24 -15
2 63 27 83 15 11 15 12 -2 12 -15 0 -16 3 -7 12 7 7 12 25 12 40 0 15 5 28 10
28 6 0 10 9 10 19 0 33 17 33 29 1 15 -44 41 -39 40 8 0 28 -2 32 -8 17 -6
-15 -9 -11 -14 20 -4 22 -7 53 -7 68 l0 28 -180 -1 c-183 -2 -184 -2 -181 -40
0 -8 -2 -20 -7 -25 -14 -19 -81 -65 -94 -65 -8 0 -21 -9 -31 -20 -17 -20 -43
-28 -32 -10 3 6 -1 7 -9 4 -9 -3 -14 -10 -11 -14 6 -10 -49 -30 -81 -30 -12 0
-24 -5 -26 -10 -6 -18 -198 -38 -198 -21 0 8 -49 11 -160 9 -88 -1 -160 -6
-160 -10 0 -4 55 -9 123 -10 l122 -2 -125 -6 c-85 -3 -139 -1 -169 8 -50 14
-136 16 -91 2 25 -8 -268 -4 -347 5 -23 2 -44 1 -47 -4 -3 -4 -35 -11 -71 -13
-36 -3 -71 -10 -78 -15 -6 -6 -27 -15 -46 -21 -28 -10 -32 -10 -21 3 6 8 28
19 48 26 20 6 53 21 72 33 58 37 72 40 65 13 -6 -21 -5 -21 6 -2 16 27 29 35
57 35 12 0 22 4 22 9 0 9 87 30 155 36 22 2 65 6 95 10 43 5 51 4 37 -5 -10
-6 -43 -14 -72 -17 -45 -5 -55 -9 -55 -24 0 -15 8 -19 40 -19 27 0 40 4 40 14
0 16 70 32 79 18 8 -12 81 -21 81 -10 0 11 78 10 82 -1 2 -5 71 -7 161 -4
l157 6 0 43 0 44 -40 0 -40 0 0 -40 0 -40 -40 0 -40 0 0 40 0 40 -40 0 -40 0
0 -40 0 -40 -40 0 -40 0 0 40 c0 38 2 40 30 40 28 0 30 2 30 40 l0 40 -230 0
-230 0 0 -24 c0 -22 -5 -24 -76 -31 -41 -4 -78 -4 -81 -1 -4 3 9 6 29 6 46 0
100 19 95 34 -2 6 -30 11 -68 12 -37 1 -46 -1 -21 -3 23 -2 42 -8 42 -14 0 -9
-69 -15 -100 -9 -8 1 -33 3 -55 3 -22 0 -32 2 -22 4 9 3 17 9 17 14 0 6 -82 9
-215 8 -118 -1 -215 -6 -215 -10 0 -5 -7 -9 -16 -9 -8 0 -12 5 -9 10 4 7 -362
10 -1089 10 l-1096 0 0 -105z m2960 70 c0 -21 -5 -25 -27 -25 -27 1 -27 1 -9
15 11 8 14 15 7 15 -7 0 -9 5 -6 10 12 20 35 10 35 -15z m1251 2 c-10 -9 -11
-8 -5 6 3 10 9 15 12 12 3 -3 0 -11 -7 -18z m-2010 -10 c16 4 20 2 17 -8 -2
-8 -17 -15 -31 -17 -24 -3 -27 0 -27 25 1 23 2 25 10 11 7 -10 17 -14 31 -11z
m-521 3 c0 -5 -18 -10 -40 -10 -22 0 -40 5 -40 10 0 6 18 10 40 10 22 0 40 -4
40 -10z m3060 0 c0 -5 -4 -10 -10 -10 -5 0 -10 5 -10 10 0 6 5 10 10 10 6 0
10 -4 10 -10z m88 -18 c-31 -43 -115 -139 -139 -160 -47 -38 -65 -38 -27 1 21
20 42 37 48 37 5 0 10 4 10 9 0 6 14 25 31 43 16 18 40 45 52 60 24 31 46 39
25 10z m-2190 -2 c30 1 52 -3 52 -9 0 -6 -8 -12 -17 -13 -26 -2 -36 -4 -58
-10 -11 -3 -33 -9 -50 -13 -29 -6 -29 -6 -10 10 19 16 19 16 -11 11 -18 -3
-49 -2 -70 1 l-39 6 35 13 c19 7 53 11 75 9 22 -3 64 -5 93 -5z m-2078 -10 c0
-5 -18 -10 -40 -10 -22 0 -40 5 -40 10 0 6 18 10 40 10 22 0 40 -4 40 -10z
m-400 -40 c0 -28 2 -30 40 -30 22 0 40 -4 40 -10 0 -5 -24 -10 -53 -10 l-53 0
4 40 c5 46 22 54 22 10z m1280 -10 l0 -40 -80 0 c-64 0 -80 3 -80 15 0 11 11
15 40 15 36 0 40 3 40 25 0 23 4 25 40 25 l40 0 0 -40z m640 -3 c0 -33 -6 -49
-25 -67 -29 -27 -44 -23 -17 5 12 13 16 31 13 62 -2 34 0 43 13 43 12 0 16
-10 16 -43z m85 31 c-11 -6 -29 -18 -39 -27 -18 -15 -19 -15 -13 0 3 9 0 22
-6 28 -8 8 1 11 34 11 38 -1 41 -2 24 -12z m2495 -18 c5 0 13 8 19 17 5 10 13
14 17 10 11 -11 -32 -51 -45 -43 -6 4 -10 17 -10 29 1 17 2 18 6 5 2 -10 8
-18 13 -18z m-2204 11 c-7 -11 -56 -21 -56 -10 0 9 19 17 43 18 10 1 16 -3 13
-8z m-2056 -21 c0 -5 -18 -10 -40 -10 -22 0 -40 5 -40 10 0 6 18 10 40 10 22
0 40 -4 40 -10z m1980 -10 c0 -5 13 -10 29 -10 17 0 33 5 36 10 3 6 18 10 33
9 l27 -1 -26 -11 c-14 -7 -33 -18 -42 -26 -9 -7 -24 -11 -32 -7 -9 3 -13 2
-10 -4 4 -6 -7 -7 -27 -3 -31 6 -32 5 -18 -11 13 -17 12 -18 -5 -14 -11 2 -29
-4 -39 -14 -11 -10 -28 -18 -38 -18 -10 0 -22 -10 -27 -22 -7 -20 -8 -20 -15
-2 -5 13 -1 24 16 37 13 10 36 29 52 43 31 26 41 31 30 12 -5 -8 -2 -9 10 -5
10 4 22 7 28 7 7 0 7 5 -1 13 -6 8 -8 17 -4 20 10 10 23 8 23 -3z m2575 -28
c-15 -16 -16 -15 -4 12 7 15 15 23 17 16 3 -7 -3 -19 -13 -28z m75 8 c0 -5 -7
-10 -15 -10 -8 0 -15 5 -15 10 0 6 7 10 15 10 8 0 15 -4 15 -10z m-3350 -30
c0 -17 -7 -20 -40 -20 -33 0 -40 3 -40 20 0 17 7 20 40 20 33 0 40 -3 40 -20z
m3250 -35 c-7 -9 -15 -13 -18 -10 -3 2 1 11 8 20 7 9 15 13 18 10 3 -2 -1 -11
-8 -20z m-10 -46 c-12 -21 -37 -35 -46 -26 -14 14 9 47 32 47 22 0 23 -2 14
-21z m-2716 -25 c-10 -8 -34 -28 -51 -46 -48 -47 -49 -29 -1 24 26 29 47 44
56 40 12 -4 12 -7 -4 -18z m296 -18 c0 -2 -7 -7 -16 -10 -8 -3 -12 -2 -9 4 6
10 25 14 25 6z m2365 -6 c3 -5 -3 -10 -15 -10 -12 0 -18 5 -15 10 3 6 10 10
15 10 5 0 12 -4 15 -10z m-295 -10 c-20 -13 -33 -13 -25 0 3 6 14 10 23 10 15
0 15 -2 2 -10z m245 -40 c-3 -5 -10 -10 -16 -10 -5 0 -9 5 -9 10 0 6 7 10 16
10 8 0 12 -4 9 -10z m-44 -39 c-7 -5 -11 -13 -7 -19 3 -6 1 -14 -5 -17 -19
-13 -22 4 -5 31 10 14 20 23 24 19 4 -3 0 -10 -7 -14z m-463 -13 c-30 -23 -41
-23 -27 0 6 10 20 18 30 18 18 0 18 -2 -3 -18z m489 -30 c-3 -8 -6 -5 -6 6 -1
11 2 17 5 13 3 -3 4 -12 1 -19z m-77 -5 c0 -5 -7 -17 -15 -27 -12 -16 -18 -17
-27 -8 -10 10 -8 14 10 18 12 4 22 10 22 15 0 5 2 9 5 9 3 0 5 -3 5 -7z m47
-29 c-3 -3 -12 -4 -19 -1 -8 3 -5 6 6 6 11 1 17 -2 13 -5z m-107 -61 c0 -10
-6 -12 -19 -8 -11 3 -22 1 -26 -5 -3 -5 -13 -10 -21 -10 -10 0 -5 8 13 24 28
25 53 24 53 -1z m336 -34 c192 -3 297 -33 572 -168 17 -8 32 -19 32 -23 0 -5
7 -8 15 -8 9 0 18 -7 21 -15 4 -8 15 -15 25 -15 10 0 19 -4 19 -8 0 -4 14 -16
30 -25 31 -19 41 -57 15 -57 -8 0 -15 4 -15 9 0 5 -26 21 -57 37 -31 16 -66
37 -78 47 -11 10 -32 21 -48 24 -15 3 -30 10 -33 14 -3 5 -14 9 -25 9 -11 0
-22 6 -25 14 -3 8 -20 18 -37 22 -18 3 -41 13 -52 20 -11 8 -32 14 -47 14 -16
0 -28 4 -28 8 0 8 -63 23 -186 43 -87 14 -202 8 -214 -11 -6 -10 -12 -11 -22
-3 -9 8 -59 8 -177 1 -171 -10 -198 -6 -171 27 9 11 22 14 41 10 15 -4 67 1
116 9 114 20 207 33 214 30 3 -2 54 -4 115 -5z m7 -75 c20 -4 37 -10 37 -14 0
-8 -99 6 -108 15 -7 7 24 6 71 -1z m17 -50 c119 -20 169 -21 179 -6 5 9 18 7
49 -8 49 -24 74 -26 46 -5 -19 16 -19 16 1 13 11 -2 20 -10 20 -18 0 -17 -22
-18 -95 -5 -62 11 -45 -3 27 -22 32 -8 74 -23 93 -33 19 -10 70 -34 112 -55
42 -20 79 -43 82 -50 5 -13 -21 -2 -84 35 -31 18 -177 68 -245 83 -148 34
-298 46 -569 48 -147 0 -266 3 -263 5 6 6 95 25 162 34 85 12 373 2 485 -16z
m100 16 c0 -5 -9 -10 -19 -10 -11 0 -23 5 -26 10 -4 6 5 10 19 10 14 0 26 -4
26 -10z m450 -150 c0 -5 -4 -10 -9 -10 -6 0 -13 5 -16 10 -3 6 1 10 9 10 9 0
16 -4 16 -10z m-4005 -20 l30 -8 -32 -1 c-17 0 -34 -5 -37 -10 -7 -11 -191
-37 -231 -32 -16 1 -31 7 -33 12 -5 12 -42 12 -42 -1 0 -15 -17 -12 -24 5 -3
8 -2 14 2 13 4 -2 27 3 52 9 25 7 54 14 65 17 34 7 218 4 250 -4z m3518 -16
c20 -4 37 -11 37 -16 0 -11 -65 -2 -90 13 -13 7 -13 8 0 9 8 0 32 -3 53 -6z
m-3932 -47 c-6 -8 -8 -17 -4 -20 10 -11 23 -8 23 6 0 8 20 12 69 12 38 0 67
-3 64 -7 -2 -5 -12 -8 -22 -8 -20 0 -53 -13 -157 -60 -73 -34 -89 -37 -80 -15
3 9 0 15 -9 15 -8 0 -15 9 -15 20 0 13 16 27 53 44 58 29 97 35 78 13z m4061
-5 c29 -5 55 -28 44 -39 -4 -4 -15 -2 -24 5 -9 6 -32 18 -49 26 -33 15 -48 34
-15 21 9 -4 29 -10 44 -13z m68 2 c0 -2 -7 -4 -15 -4 -8 0 -15 4 -15 10 0 5 7
7 15 4 8 -4 15 -8 15 -10z m295 6 c3 -5 -1 -10 -9 -10 -9 0 -16 5 -16 10 0 6
4 10 9 10 6 0 13 -4 16 -10z m-235 -20 c0 -5 -7 -10 -15 -10 -8 0 -15 5 -15
10 0 6 7 10 15 10 8 0 15 -4 15 -10z m400 0 c0 -5 -4 -10 -9 -10 -6 0 -13 5
-16 10 -3 6 1 10 9 10 9 0 16 -4 16 -10z m-446 -22 c-5 -8 3 -9 29 -5 42 7 48
-3 12 -19 -19 -9 -27 -9 -36 2 -6 8 -15 11 -20 8 -5 -3 -6 2 -3 10 3 9 10 16
16 16 5 0 6 -5 2 -12z m146 -18 c0 -13 -7 -20 -19 -20 -28 0 -35 28 -8 33 12
2 23 5 25 6 1 0 2 -8 2 -19z m-4420 -36 c13 -33 13 -31 -10 -37 -17 -4 -18 -2
-10 14 9 15 6 20 -15 25 -32 8 -32 24 0 24 18 0 28 -7 35 -26z m4340 0 c0 -8
-4 -12 -10 -9 -5 3 -10 10 -10 16 0 5 5 9 10 9 6 0 10 -7 10 -16z m280 -19 c0
-3 -14 -5 -31 -5 -27 0 -30 2 -19 15 9 11 17 12 31 4 10 -5 19 -12 19 -14z
m-4680 5 c0 -5 -4 -10 -10 -10 -5 0 -10 5 -10 10 0 6 5 10 10 10 6 0 10 -4 10
-10z m1738 -256 c-10 -10 -23 -14 -37 -9 -34 10 -24 25 16 25 34 0 36 -1 21
-16z m-2131 -66 c-3 -7 -5 -2 -5 12 0 14 2 19 5 13 2 -7 2 -19 0 -25z m53 18
c0 -2 -3 -11 -6 -20 -9 -23 -24 -20 -24 4 0 11 7 20 15 20 8 0 15 -2 15 -4z
m1655 -125 c44 -18 98 -47 120 -66 l40 -35 -22 -21 -22 -22 -30 26 c-17 14
-41 29 -53 32 -13 4 -30 13 -38 20 -28 24 -132 47 -211 47 -91 0 -199 -28
-306 -77 -77 -36 -245 -143 -298 -190 -16 -14 -61 -48 -100 -74 -38 -26 -90
-62 -115 -79 -64 -46 -198 -135 -247 -165 -76 -48 -224 -118 -236 -113 -7 2
-5 5 5 5 9 1 23 7 30 14 13 14 105 71 171 107 20 11 37 25 37 30 0 6 7 10 15
10 15 0 73 35 120 74 59 49 461 326 535 370 94 56 232 118 292 131 100 23 217
14 313 -24z m2705 -11 c20 -16 21 -19 5 -13 -22 8 -51 33 -38 33 4 0 19 -9 33
-20z m88 -48 c12 -8 22 -18 22 -23 0 -7 -62 30 -79 47 -9 9 33 -9 57 -24z m79
-74 c13 -12 23 -27 23 -35 0 -7 6 -13 13 -13 8 0 19 -11 25 -25 6 -14 9 -25 5
-25 -10 0 -52 50 -68 81 -9 16 -20 27 -25 24 -6 -4 -10 -1 -10 4 0 17 11 13
37 -11z m-642 -71 c30 -61 33 -132 9 -219 -9 -32 -14 -61 -11 -64 9 -10 76 70
82 99 10 43 33 33 41 -19 6 -45 2 -92 -11 -126 -13 -33 30 -20 66 20 l34 37 3
-40 c6 -85 -67 -245 -157 -347 -64 -71 -88 -81 -50 -20 16 27 36 70 44 96 l14
46 -62 -44 c-58 -41 -126 -71 -116 -50 3 5 11 21 19 36 27 56 -3 41 -73 -36
-40 -43 -93 -102 -119 -130 -25 -28 -49 -49 -51 -46 -3 3 29 50 70 105 82 110
131 201 117 215 -5 5 -27 -2 -54 -19 -25 -15 -94 -54 -155 -86 -60 -32 -114
-61 -120 -65 -5 -4 -29 -14 -52 -23 -23 -9 -61 -25 -85 -36 -62 -28 -246 -86
-371 -117 -116 -28 -154 -28 -60 1 63 19 169 58 220 81 17 8 33 14 36 14 11 0
176 80 237 115 36 21 74 43 85 49 174 98 348 282 406 429 22 55 27 153 10 185
-6 11 -7 22 -4 26 10 10 31 -13 58 -67z m-1941 42 c-25 -27 -54 -43 -54 -29 0
6 11 15 25 20 14 5 25 14 25 20 0 5 5 10 12 10 6 0 3 -9 -8 -21z m-104 -79 c0
-5 -10 -15 -22 -21 -23 -12 -23 -12 -4 10 21 23 26 26 26 11z m936 -22 c30
-11 32 -14 27 -47 -3 -20 -13 -44 -21 -53 -19 -22 -65 -23 -82 -3 -7 8 -19 15
-26 15 -17 0 -17 10 -4 47 19 51 48 62 106 41z m1851 -3 c9 -25 -4 -29 -17 -6
-7 15 -7 21 0 21 6 0 13 -7 17 -15z m48 -133 c-7 -7 -25 47 -24 71 1 14 6 5
15 -22 8 -25 12 -47 9 -49z m12 -44 c-3 -7 -5 -2 -5 12 0 14 2 19 5 13 2 -7 2
-19 0 -25z m10 -65 c-3 -10 -5 -4 -5 12 0 17 2 24 5 18 2 -7 2 -21 0 -30z
m-2437 -33 c22 -40 -27 -83 -70 -60 -22 12 -25 31 -10 61 15 26 66 26 80 -1z
m2331 -108 c7 -24 17 -45 21 -48 16 -10 47 26 64 75 24 63 37 76 29 26 -17
-103 -91 -264 -160 -350 -62 -77 -190 -204 -284 -283 -82 -68 -251 -187 -251
-176 0 4 26 30 58 57 114 101 352 343 365 370 6 15 15 27 18 27 10 0 49 69 49
86 0 13 -5 12 -27 -4 -63 -43 -82 -33 -37 21 37 44 79 134 93 197 7 30 15 66
18 80 l5 25 13 -30 c7 -16 19 -49 26 -73z m-2442 49 c11 -11 18 -28 16 -38 -2
-10 -4 -21 -4 -25 -2 -17 -35 -38 -58 -38 -55 0 -83 62 -46 102 21 24 68 23
92 -1z m-709 -88 c-1 -15 -30 -46 -37 -40 -3 4 2 16 12 27 19 21 25 24 25 13z
m-573 -29 c-3 -3 -12 -4 -19 -1 -8 3 -5 6 6 6 11 1 17 -2 13 -5z m523 -36 c0
-19 -18 -44 -25 -36 -4 3 0 15 7 27 15 24 18 26 18 9z m-843 -78 c-41 -22 -47
-24 -47 -12 0 10 40 29 65 31 13 1 6 -6 -18 -19z m789 -22 c-18 -26 -22 -17
-5 14 6 11 13 17 16 15 3 -3 -2 -16 -11 -29z m3571 -37 c-6 -72 -45 -167 -92
-223 -13 -15 -25 -33 -28 -40 -2 -7 -7 -10 -11 -6 -7 6 24 84 90 225 19 39 34
81 34 92 0 12 3 21 6 21 4 0 4 -31 1 -69z m-4417 35 c0 -3 -31 -22 -70 -42
-38 -21 -70 -42 -70 -46 0 -4 -5 -8 -10 -8 -6 0 -29 -12 -51 -26 -23 -14 -43
-23 -46 -20 -6 5 114 86 182 122 38 21 65 29 65 20z m807 -58 c-3 -8 -6 -5 -6
6 -1 11 2 17 5 13 3 -3 4 -12 1 -19z m972 5 c-8 -9 -34 -37 -59 -62 -25 -26
-65 -72 -89 -104 -24 -31 -50 -57 -58 -57 -8 0 -13 5 -11 12 6 16 211 227 222
228 5 0 2 -7 -5 -17z m-989 -38 c0 -8 -4 -15 -10 -15 -5 0 -7 7 -4 15 4 8 8
15 10 15 2 0 4 -7 4 -15z m-20 -39 c0 -3 -4 -8 -10 -11 -5 -3 -10 -1 -10 4 0
6 5 11 10 11 6 0 10 -2 10 -4z m1419 -90 c-2 -2 -68 -36 -146 -75 -131 -66
-144 -70 -190 -65 -70 8 -73 20 -6 38 32 9 117 36 188 60 119 40 165 53 154
42z m-656 -127 c-6 -6 -19 -9 -29 -7 -17 3 -17 4 1 21 12 13 21 15 28 8 8 -8
8 -14 0 -22z m3342 -32 c27 -79 30 -357 4 -357 -5 0 -9 9 -9 21 0 11 -4 18 -9
15 -17 -11 -23 29 -26 161 -5 193 9 250 40 160z m-2382 -12 c-19 -34 -147
-155 -164 -155 -22 0 -139 49 -158 66 -10 9 3 18 70 44 73 28 248 72 257 64 2
-1 0 -10 -5 -19z m-1001 -56 c-11 -24 -25 -56 -31 -71 -11 -30 -36 -36 -64
-15 -17 12 -16 15 6 57 25 48 84 97 99 82 5 -5 1 -28 -10 -53z m226 49 c-3 -7
-12 -14 -21 -16 -12 -2 -15 1 -11 12 7 19 38 22 32 4z m-1349 -19 c35 -21 67
-56 108 -117 14 -20 29 -38 34 -40 17 -7 8 -60 -42 -258 l-11 -42 -39 39 c-40
40 -65 47 -100 28 -27 -14 -15 -29 24 -29 22 0 44 -11 71 -33 l38 -34 -10 -78
c-9 -65 -15 -82 -41 -109 -36 -37 -51 -74 -51 -126 0 -62 29 -59 30 3 1 12 9
38 20 57 l19 35 1 -35 c0 -19 -3 -72 -7 -117 l-6 -82 -28 20 c-39 28 -37 8 3
-25 32 -26 32 -26 39 -149 4 -67 5 -124 2 -127 -11 -11 -198 255 -262 372 -61
112 -111 267 -111 343 0 180 126 449 238 509 37 19 42 19 81 -5z m1414 -46
c-7 -2 -13 -11 -13 -19 0 -8 -10 -14 -25 -14 -23 0 -24 2 -15 20 7 13 20 20
38 19 15 0 21 -3 15 -6z m-123 -18 c0 -8 -4 -15 -10 -15 -5 0 -10 7 -10 15 0
8 5 15 10 15 6 0 10 -7 10 -15z m1204 -62 c-37 -65 -96 -151 -131 -191 l-28
-33 -73 52 -74 52 159 83 c87 46 162 83 166 84 5 0 -4 -21 -19 -47z m-1124 33
c0 -3 -4 -8 -10 -11 -5 -3 -10 -1 -10 4 0 6 5 11 10 11 6 0 10 -2 10 -4z m412
-73 c37 -19 68 -39 68 -44 0 -12 -132 -99 -151 -99 -9 0 -51 13 -95 28 -43 16
-96 32 -116 36 -21 4 -38 11 -38 16 0 5 48 33 107 63 121 61 109 61 225 0z
m-547 -1 c-3 -3 -11 0 -18 7 -9 10 -8 11 6 5 10 -3 15 -9 12 -12z m-170 -12
c0 -10 -12 -16 -33 -18 -45 -4 -63 3 -56 23 9 22 89 17 89 -5z m3253 -37 c8
-51 -72 -65 -85 -15 -4 19 0 30 17 44 20 16 25 17 44 5 12 -8 22 -23 24 -34z
m-2778 -79 c103 -33 128 -48 98 -59 -7 -3 -65 18 -128 45 -135 59 -123 64 30
14z m1790 1 c12 -23 12 -28 -7 -46 -39 -39 -98 5 -67 49 21 30 57 28 74 -3z
m-1201 -72 c42 -25 87 -53 100 -60 l23 -15 -33 -35 c-39 -40 -144 -123 -156
-123 -4 0 -44 36 -87 81 -44 44 -90 87 -103 96 -33 22 -29 29 25 48 26 9 63
24 82 35 19 11 43 19 54 20 10 0 53 -21 95 -47z m-1733 -105 c-37 -180 -56
-343 -56 -479 0 -175 32 -369 76 -464 l23 -50 -4 90 c-3 50 -8 122 -11 160
-10 143 48 575 77 575 6 0 7 -15 2 -37 -4 -21 -7 -141 -7 -268 0 -192 3 -241
18 -295 22 -80 78 -201 101 -220 17 -14 18 -12 11 35 -4 28 -9 73 -12 100 l-4
50 27 -54 c15 -30 29 -49 31 -43 2 7 -4 53 -12 104 -27 158 -15 403 28 538
l14 45 1 -105 c1 -58 8 -148 16 -199 17 -101 71 -252 94 -259 9 -3 11 1 7 15
-19 61 -36 203 -36 306 0 116 12 154 25 78 7 -44 67 -175 84 -185 15 -10 14
-1 -10 79 -33 112 -39 425 -8 425 5 0 15 -11 21 -25 20 -44 34 -28 51 59 10
47 17 93 17 104 0 11 6 25 14 31 14 11 186 28 186 18 0 -5 -54 -93 -103 -165
-36 -56 -61 -161 -53 -232 l6 -55 -20 30 c-11 17 -20 35 -20 41 0 11 -62 64
-75 64 -4 0 -4 -17 0 -37 6 -33 5 -35 -9 -24 -9 8 -16 10 -16 5 0 -21 49 -88
109 -149 65 -66 147 -114 256 -148 84 -27 396 -99 402 -94 11 12 -10 26 -89
57 -46 18 -87 37 -92 41 -5 5 13 28 42 54 83 75 141 219 127 315 -8 51 -43
140 -56 140 -5 0 -9 7 -9 15 0 59 180 -61 309 -208 24 -26 24 -27 5 -48 -10
-12 -52 -39 -91 -61 -126 -69 -110 -75 48 -20 l108 37 21 -22 c27 -30 31 -29
28 9 l-3 32 170 71 c94 39 221 94 283 122 61 29 112 48 112 44 0 -13 -156
-167 -245 -241 -44 -37 -127 -100 -184 -141 -63 -44 -98 -75 -89 -77 20 -4
202 71 280 114 31 18 59 30 62 27 14 -15 -183 -167 -298 -230 -176 -96 111 -4
322 103 119 61 203 116 285 186 31 27 57 45 57 40 0 -10 -70 -110 -120 -172
-91 -112 -262 -259 -495 -424 -11 -8 -17 -17 -13 -21 22 -23 418 124 442 164
4 6 13 11 21 11 10 0 3 -21 -23 -72 -37 -73 -37 -73 -37 -198 1 -136 17 -214
76 -370 l32 -82 -24 -23 c-13 -12 -64 -44 -114 -70 -49 -26 -99 -56 -110 -66
-19 -19 -19 -19 1 -19 11 0 24 4 30 9 5 5 39 18 76 30 73 22 112 41 143 68 47
42 47 44 9 134 -59 139 -115 389 -88 389 4 0 25 -16 47 -36 49 -45 126 -81
197 -92 l55 -9 -52 -23 c-29 -12 -51 -26 -48 -30 6 -10 125 13 199 39 33 12
61 19 63 17 4 -4 -21 -25 -47 -41 -48 -27 -130 -88 -130 -95 0 -15 118 27 198
70 31 16 57 28 59 26 3 -3 -28 -68 -125 -261 -34 -67 -114 -197 -136 -221 -6
-7 -26 -31 -45 -55 -43 -55 -271 -283 -329 -329 -24 -19 -56 -45 -70 -58 -46
-40 -204 -157 -277 -205 l-71 -47 -48 16 c-38 13 -70 15 -150 11 -160 -10
-262 -35 -522 -130 l-41 -15 -55 56 c-45 46 -158 178 -256 297 -108 131 -266
367 -360 537 -153 278 -234 509 -288 827 -50 300 -55 435 -18 553 39 126 117
333 122 320 2 -6 -8 -66 -22 -134z m899 102 c-3 -5 -22 -10 -41 -10 -21 0 -33
4 -29 10 3 6 22 10 41 10 21 0 33 -4 29 -10z m106 -69 c40 -49 13 -128 -57
-172 -22 -13 -53 -38 -70 -56 -37 -39 -54 -41 -91 -9 -24 21 -26 27 -16 49 10
21 8 28 -12 47 -13 12 -29 36 -36 53 -12 29 -11 32 22 59 46 39 112 58 183 55
47 -3 63 -8 77 -26z m442 -3 c18 -12 41 -31 52 -41 11 -10 48 -42 82 -70 35
-29 63 -57 63 -63 0 -5 -20 -24 -44 -41 l-44 -31 -39 65 c-21 36 -64 94 -95
128 -32 35 -58 66 -58 69 0 15 55 4 83 -16z m-2458 -62 c23 -16 24 -71 3 -93
-36 -35 -108 -3 -108 48 0 46 65 74 105 45z m4899 -371 c1 -229 -11 -307 -62
-410 -24 -48 -25 -49 -34 -25 -16 41 -1 328 26 515 3 17 7 80 11 140 4 61 9
117 12 125 3 8 15 -19 26 -60 18 -65 21 -104 21 -285z m-1034 228 c-28 -93
-41 -113 -74 -113 -17 0 -46 -4 -64 -9 -17 -5 -32 -8 -32 -6 0 7 175 173 178
170 2 -2 -1 -21 -8 -42z m-3860 -37 c0 -20 -27 -39 -45 -32 -25 9 -30 37 -10
52 20 15 55 2 55 -20z m4734 -35 c3 -5 16 -7 28 -3 21 5 21 4 14 -94 -7 -109
-30 -261 -40 -271 -3 -3 -6 -1 -6 6 0 8 -7 10 -19 6 -30 -9 -38 22 -57 225 -6
64 -6 67 27 102 37 38 45 43 53 29z m-994 -165 c0 -7 -10 -21 -22 -32 -21 -18
-29 -19 -103 -9 l-80 10 27 19 c24 16 152 38 171 28 4 -2 7 -9 7 -16z m-2875
-103 c4 -60 10 -126 15 -148 5 -22 11 -71 15 -110 6 -62 5 -68 -7 -51 -13 17
-19 18 -48 8 -18 -7 -36 -9 -41 -6 -13 8 -11 86 6 199 20 134 38 215 46 215 4
0 10 -48 14 -107z m3131 56 c14 -24 -49 -128 -78 -129 -5 0 -17 9 -29 21 l-21
21 48 49 c49 49 67 58 80 38z m-342 -37 c5 -8 -146 -5 -169 3 -5 2 29 4 77 4
48 1 89 -3 92 -7z m209 -96 c9 -7 17 -21 17 -30 0 -10 8 -16 25 -16 25 0 33
-14 15 -25 -5 -3 -10 -15 -10 -26 0 -10 -2 -19 -5 -19 -20 0 -115 84 -115 102
0 8 31 27 45 27 6 0 18 -6 28 -13z m-293 -5 c0 -19 -22 -23 -38 -7 -15 15 -14
16 11 16 15 0 27 -4 27 -9z m400 1 c0 -4 -5 -13 -12 -20 -7 -7 -16 -12 -20
-12 -13 0 -9 28 5 33 19 8 27 8 27 -1z m-522 -24 c7 -7 12 -26 12 -44 0 -24
-9 -40 -38 -65 -21 -19 -46 -38 -56 -44 -9 -5 -18 -17 -19 -25 -5 -28 -18 -40
-47 -40 -37 0 -44 12 -47 86 -2 55 1 64 25 86 56 53 141 75 170 46z m182 -11
c0 -14 -47 -63 -54 -56 -2 2 -6 14 -10 26 -5 17 -1 23 21 31 38 14 43 14 43
-1z m95 -68 c19 -36 14 -89 -17 -162 -12 -26 -19 -49 -17 -51 2 -2 39 17 82
42 42 25 80 42 83 39 9 -8 -22 -60 -53 -88 -32 -31 -161 -118 -212 -144 -28
-14 -49 -16 -105 -11 -81 8 -116 15 -116 26 0 4 18 15 40 25 77 35 144 134
157 232 8 65 12 71 69 98 65 31 71 30 89 -6z m568 -47 c9 -8 17 -26 17 -39 0
-26 -32 -63 -55 -63 -18 0 -18 -4 -3 -48 11 -30 11 -35 -7 -48 -11 -8 -27 -11
-39 -7 -12 3 -31 6 -43 5 -13 -1 -23 2 -23 7 0 17 43 63 68 72 l25 10 -22 20
c-31 29 -26 89 8 105 26 13 46 9 74 -14z m277 -47 c0 -13 -6 -36 -14 -52 -8
-15 -20 -48 -27 -73 -19 -67 -57 -140 -74 -140 -8 0 -15 7 -15 15 0 8 -5 23
-11 33 -10 15 -2 33 49 106 33 48 64 101 67 117 8 33 25 30 25 -6z m136 -70
c3 -25 10 -48 15 -51 20 -12 7 -59 -27 -101 -40 -49 -61 -46 -41 6 10 28 10
34 -6 45 -22 17 -22 22 8 84 14 29 25 57 25 63 0 28 20 -7 26 -46z m-3813 -2
c8 -10 21 -40 27 -68 26 -109 75 -265 123 -390 45 -113 217 -434 239 -443 4
-2 8 -8 8 -14 0 -6 18 -37 40 -70 22 -33 40 -63 40 -66 0 -3 10 -16 22 -29 12
-13 19 -25 16 -29 -6 -6 -102 19 -393 102 -265 76 -408 131 -420 162 -20 52
-16 430 4 418 4 -3 13 -38 21 -78 14 -81 57 -198 84 -229 9 -12 19 -19 21 -17
2 2 -5 39 -16 83 -37 150 -33 479 6 492 6 2 19 -29 29 -68 39 -151 188 -390
222 -356 4 4 0 15 -8 24 -81 96 -168 368 -168 527 0 40 2 44 33 54 46 14 52
14 70 -5z m2941 -375 c22 -31 20 -47 -9 -60 -19 -9 -29 -8 -50 6 -29 19 -32
38 -9 60 22 22 50 20 68 -6z m1055 -62 c15 -8 53 -42 84 -76 53 -56 57 -65 57
-108 0 -26 7 -107 16 -180 13 -101 14 -139 6 -157 -13 -28 -32 -33 -32 -9 0 9
-7 31 -16 49 -15 33 -46 51 -93 57 -22 3 -26 11 -38 73 -7 39 -12 93 -11 120
2 39 -4 62 -27 105 -17 30 -36 60 -42 68 -23 24 -15 48 20 60 44 14 44 14 76
-2z m-483 -162 c20 -47 12 -75 -25 -97 -39 -23 -77 -13 -96 24 -19 37 -19 55
3 84 13 19 26 24 60 25 40 0 44 -2 58 -36z m831 20 c75 -15 105 -321 35 -349
-37 -15 -156 -55 -164 -55 -5 0 -6 16 -2 35 3 20 1 70 -5 113 -15 94 -28 261
-22 268 5 4 119 -4 158 -12z m-5300 -76 c-3 -7 -5 -2 -5 12 0 14 2 19 5 13 2
-7 2 -19 0 -25z m3638 -62 c2 -19 6 -44 10 -56 5 -15 -3 -28 -28 -52 -19 -18
-47 -53 -62 -78 -15 -25 -49 -67 -76 -95 -47 -49 -48 -52 -60 -139 -14 -108
-7 -126 65 -157 66 -28 195 -69 221 -69 11 0 31 -7 43 -16 13 -9 30 -13 39
-10 10 4 14 2 10 -8 -3 -8 -11 -33 -17 -55 -9 -34 -21 -47 -79 -85 -38 -25
-98 -59 -133 -76 -58 -27 -69 -29 -114 -21 -28 6 -78 26 -112 46 -69 42 -76
41 -164 -11 -99 -60 -146 -77 -196 -70 -59 8 -106 37 -167 103 l-50 55 35 30
c19 17 51 45 70 62 19 17 55 47 80 66 24 19 50 40 56 45 6 6 40 33 74 60 35
28 76 62 92 78 16 15 34 27 39 27 5 0 71 62 147 138 102 101 155 163 202 235
34 54 65 96 67 93 3 -2 6 -20 8 -40z m-3658 -18 c-3 -8 -6 -5 -6 6 -1 11 2 17
5 13 3 -3 4 -12 1 -19z m596 -71 c-9 -16 -26 12 -18 30 7 17 8 17 15 -2 4 -11
5 -24 3 -28z m4929 -4 c28 -25 21 -42 -24 -63 -60 -27 -72 -26 -63 8 4 15 7
38 6 51 0 12 1 27 4 32 7 10 54 -7 77 -28z m-5020 -10 c15 -19 38 -68 38 -83
0 -8 -75 16 -96 32 -9 7 -9 16 -1 38 13 34 37 39 59 13z m148 -96 c11 -17 17
-33 15 -35 -2 -2 -18 -1 -35 3 -34 7 -57 42 -46 70 8 22 41 4 66 -38z m4387
-2 c8 -9 17 -34 20 -56 6 -45 -4 -59 -44 -59 -21 0 -23 4 -21 48 1 26 -1 55
-6 65 -6 13 -4 17 14 17 12 0 28 -7 37 -15z m-4562 -16 c5 -5 -6 -9 -28 -9
-35 0 -45 8 -30 23 8 8 43 -1 58 -14z m308 -21 c45 -22 78 -43 72 -44 -5 -2
-44 4 -85 14 -69 16 -75 20 -78 45 -2 15 -1 27 3 27 3 0 42 -19 88 -42z m-21
-92 c24 -8 98 -27 165 -42 77 -17 124 -33 128 -42 4 -11 -1 -13 -22 -9 -63 11
-323 91 -323 99 0 11 2 10 52 -6z m-274 -56 c77 -22 106 -40 62 -40 -39 0
-175 23 -184 31 -14 13 2 42 22 36 9 -2 54 -15 100 -27z m777 0 c7 -12 -2 -12
-30 0 -19 8 -19 9 2 9 12 1 25 -3 28 -9z m3079 -82 c11 -30 -9 -58 -41 -58
-41 0 -57 45 -27 75 23 23 57 15 68 -17z m-2963 -17 c123 -30 147 -40 170 -67
13 -15 11 -16 -21 -12 -57 8 -222 58 -260 78 -38 20 -55 46 -24 36 11 -3 71
-19 135 -35z m-974 2 c4 -11 -84 -62 -134 -77 -28 -9 -30 11 -8 54 13 25 22
29 62 33 66 5 76 4 80 -10z m249 -34 c62 -16 104 -57 104 -102 0 -51 -8 -64
-54 -96 -54 -37 -91 -48 -203 -61 -78 -10 -101 -9 -147 4 -62 18 -86 38 -86
69 0 36 20 97 32 97 6 0 16 7 22 15 6 8 52 30 101 49 97 38 154 44 231 25z
m693 -140 c101 -17 143 -45 160 -106 24 -83 -63 -150 -188 -145 -54 3 -104 62
-126 151 -9 39 -15 77 -12 85 10 25 72 31 166 15z m350 -78 c40 -21 101 -83
101 -104 0 -23 -31 -57 -51 -57 -30 0 -104 54 -128 94 -27 43 -26 52 4 60 14
4 25 11 25 16 0 14 5 13 49 -9z m-533 -26 c9 -20 13 -39 9 -43 -11 -11 -55 46
-49 63 10 24 22 18 40 -20z m3754 -75 c0 -5 0 -13 1 -17 0 -7 -76 -33 -98 -33
-25 0 -12 17 30 37 47 24 67 28 67 13z m-3296 -76 c9 -3 16 -14 16 -24 0 -31
-58 -42 -80 -15 -24 29 20 56 64 39z m3350 -287 c-8 -22 -79 -54 -136 -61 -73
-9 -66 10 10 29 38 9 81 25 97 35 32 21 38 21 29 -3z"/>
<path d="M1288 5523 c6 -2 18 -2 25 0 6 3 1 5 -13 5 -14 0 -19 -2 -12 -5z"/>
<path d="M1100 5461 c0 -5 7 -11 14 -14 10 -4 13 -1 9 9 -6 15 -23 19 -23 5z"/>
<path d="M1040 5444 c0 -17 32 -35 52 -28 21 6 21 7 3 20 -19 14 -55 19 -55 8z"/>
<path d="M1395 3533 c-30 -30 -78 -120 -89 -167 -6 -26 -5 -28 8 -17 9 8 16
20 16 28 0 20 77 131 99 143 27 14 61 -16 97 -85 26 -50 44 -69 44 -47 0 29
-37 108 -65 137 -40 43 -72 45 -110 8z"/>
<path d="M1296 3101 c-4 -7 -5 -15 -2 -18 9 -9 19 4 14 18 -4 11 -6 11 -12 0z"/>
<path d="M1334 3075 c-9 -36 19 -126 48 -151 21 -19 21 -19 14 6 -4 14 -15 55
-25 92 -20 79 -28 90 -37 53z"/>
<path d="M3250 1463 c-8 -2 -21 -7 -29 -9 -10 -3 -11 -8 -3 -16 13 -13 136
-63 179 -72 54 -12 45 11 -13 30 -31 11 -56 24 -57 29 -3 18 91 17 153 -2 64
-19 69 -23 45 -43 -28 -23 -6 -27 62 -9 81 20 91 41 23 50 -25 3 -74 15 -109
27 -48 16 -87 22 -150 21 -47 0 -93 -3 -101 -6z"/>
<path d="M3360 6370 c0 -28 2 -30 40 -30 38 0 40 2 40 30 0 28 -2 30 -40 30
-38 0 -40 -2 -40 -30z"/>
<path d="M3522 6373 c3 -24 8 -28 41 -31 20 -2 37 -7 37 -13 0 -5 18 -9 40 -9
l40 0 0 -40 c0 -39 1 -40 33 -40 19 0 37 -3 41 -7 4 -5 27 -8 49 -8 l42 0 -4
38 c-3 36 -4 37 -42 37 -21 0 -39 5 -39 10 0 6 -18 10 -40 10 l-40 0 0 40 0
40 -81 0 -80 0 3 -27z"/>
<path d="M3760 6360 c0 -29 4 -40 15 -40 11 0 15 11 15 40 0 29 -4 40 -15 40
-11 0 -15 -11 -15 -40z"/>
<path d="M3920 6379 c0 -17 5 -20 37 -17 27 2 39 8 41 21 3 14 -4 17 -37 17
-35 0 -41 -3 -41 -21z"/>
<path d="M5031 6334 c0 -11 3 -14 6 -6 3 7 2 16 -1 19 -3 4 -6 -2 -5 -13z"/>
<path d="M3920 6313 c0 -11 30 -33 45 -33 22 0 55 18 55 30 0 5 -22 9 -50 9
-27 -1 -50 -4 -50 -6z"/>
<path d="M3680 6214 c0 -11 6 -14 23 -9 38 12 43 25 9 25 -22 0 -32 -5 -32
-16z"/>
<path d="M4400 6200 c0 -13 5 -20 13 -17 6 2 12 10 12 17 0 7 -6 15 -12 18 -8
2 -13 -5 -13 -18z"/>
<path d="M0 6065 c0 -11 11 -15 40 -15 29 0 40 4 40 15 0 11 -11 15 -40 15
-29 0 -40 -4 -40 -15z"/>
<path d="M1680 5800 c0 -22 5 -40 10 -40 6 0 10 18 10 40 0 22 -4 40 -10 40
-5 0 -10 -18 -10 -40z"/>
<path d="M1360 5776 c0 -11 10 -16 32 -16 34 0 29 13 -9 25 -17 5 -23 2 -23
-9z"/>
<path d="M1225 5750 c3 -5 -1 -10 -9 -10 -9 0 -16 -7 -16 -15 0 -22 31 -18 37
4 3 11 15 22 27 24 14 3 10 5 -12 6 -20 0 -31 -3 -27 -9z"/>
<path d="M1107 5665 c-9 -23 8 -26 26 -4 16 18 16 19 -2 19 -10 0 -21 -7 -24
-15z"/>
<path d="M960 5616 c0 -9 7 -16 16 -16 17 0 14 22 -4 28 -7 2 -12 -3 -12 -12z"/>
<path d="M800 5431 c0 -5 7 -25 15 -44 8 -20 15 -52 15 -72 0 -19 5 -35 10
-35 12 0 12 15 4 99 -6 50 -10 61 -25 61 -11 0 -19 -4 -19 -9z"/>
<path d="M720 5375 c0 -8 -7 -15 -15 -15 -11 0 -15 -11 -15 -40 0 -36 3 -40
25 -40 23 0 25 4 25 40 0 38 2 40 30 40 20 0 30 5 30 15 0 11 -11 15 -40 15
-29 0 -40 -4 -40 -15z"/>
<path d="M5485 5350 c-4 -6 -3 -16 3 -22 6 -6 12 -6 17 2 4 6 3 16 -3 22 -6 6
-12 6 -17 -2z"/>
<path d="M320 5160 l0 -40 40 0 40 0 0 40 0 40 -40 0 -40 0 0 -40z"/>
<path d="M651 5141 c-10 -6 -10 -10 -1 -16 13 -8 24 -1 19 14 -3 6 -10 7 -18
2z"/>
<path d="M210 5080 c0 -29 4 -40 15 -40 11 0 15 11 15 40 0 29 -4 40 -15 40
-11 0 -15 -11 -15 -40z"/>
<path d="M972 4989 c2 -6 8 -10 13 -10 5 0 11 4 13 10 2 6 -4 11 -13 11 -9 0
-15 -5 -13 -11z"/>
<path d="M890 4952 c0 -5 9 -12 21 -15 13 -3 19 -1 16 6 -5 15 -37 22 -37 9z"/>
<path d="M481 4934 c0 -11 3 -14 6 -6 3 7 2 16 -1 19 -3 4 -6 -2 -5 -13z"/>
<path d="M410 4871 c0 -5 -3 -16 -6 -24 -4 -12 0 -14 18 -10 29 7 48 22 48 37
0 6 -7 2 -15 -8 -13 -17 -15 -17 -21 -3 -7 18 -24 23 -24 8z"/>
<path d="M321 4614 c0 -11 3 -14 6 -6 3 7 2 16 -1 19 -3 4 -6 -2 -5 -13z"/>
<path d="M486 4481 c-3 -4 0 -16 7 -25 11 -15 13 -15 15 8 2 25 -11 35 -22 17z"/>
<path d="M3069 632 c-104 -106 -206 -297 -273 -515 -43 -138 -26 -135 20 4 60
180 162 379 235 460 65 71 89 99 89 104 0 14 -20 -1 -71 -53z"/>
</g>
</svg>
